<svg xmlns="http://www.w3.org/2000/svg" width="200" height="200" baseProfile="tiny" version="1.2"><path fill="#909090" d="M1143.38-.25h3.1c30.41-.01 60.68.24 90.99 3.02l7.76.68A1243.66 1243.66 0 0 1 1280 7l2.34.27A1100.73 1100.73 0 0 1 1493 53l2.23.71C1570.4 77.88 1643.61 109.4 1712 149l1.72 1c3.73 2.15 7.46 4.31 11.18 6.48l5.29 3.08c15.98 9.37 31.51 19.46 46.92 29.74a3327.05 3327.05 0 0 0 7.37 4.9A882.36 882.36 0 0 1 1817 217l2.9 2.1c16.5 12.01 32.58 24.54 48.36 37.48l4.69 3.81a713.38 713.38 0 0 1 29.83 25.6 398.34 398.34 0 0 0 6.1 5.39 689.5 689.5 0 0 1 14.38 13.01l3.35 3.09a967.17 967.17 0 0 1 30.37 29.37c2.54 2.55 5.08 5.09 7.63 7.62l4.92 4.93 2.27 2.26c4.06 4.08 7.95 8.25 11.7 12.61a167.7 167.7 0 0 0 5.22 5.73l1.89 2 1.89 2a463.26 463.26 0 0 1 14.5 16l1.5 1.73c3 3.48 5.98 6.98 8.96 10.47l2.98 3.48a589.66 589.66 0 0 1 17.74 21.71c2.44 3.13 4.92 6.23 7.4 9.32a583.58 583.58 0 0 1 15.14 19.56A1124.58 1124.58 0 0 1 2150 595l1.53 2.77a1052.77 1052.77 0 0 1 42.65 87.04l3.46 7.9c21.87 49.46 39.43 101.04 53.36 153.28l.7 2.6c24.92 92.9 37.31 188.78-15.7 643.4l-.74 2.32c-18.36 57.18-40.6 112.78-67.24 166.6a2422.1 2422.1 0 0 0-3.08 6.27c-8 16.32-16.26 32.37-25.38 48.1a649.34 649.34 0 0 0-4.7 8.32A938.46 938.46 0 0 1 2098 1784l-1.26 1.9a1122.3 1122.3 0 0 1-46.95 65.76l-4.71 6.17A670.14 670.14 0 0 1 2029 1878l-4.31 5.31a711.62 711.62 0 0 1-23.69 27.47 398.34 398.34 0 0 0-5.38 6.1c-4.77 5.46-9.69 10.8-14.62 16.12l-1.66 1.8c-8.9 9.65-18.07 19.03-27.34 28.33l-1.63 1.63c-5.41 5.44-10.83 10.82-16.7 15.78a91.25 91.25 0 0 0-5.17 4.96 154.27 154.27 0 0 1-9.34 8.63 400.54 400.54 0 0 0-6.97 6.25c-4.28 3.85-8.68 7.5-13.16 11.12-2.81 2.32-5.55 4.7-8.28 7.1a412.32 412.32 0 0 1-24.53 19.71c-3.06 2.33-6.09 4.7-9.1 7.07a514.24 514.24 0 0 1-23.04 17.17c-2.44 1.7-4.86 3.42-7.29 5.13A808.26 808.26 0 0 1 1787 2094l-3.3 2.05a757.16 757.16 0 0 1-46.01 26.53 1354.8 1354.8 0 0 0-7.49 3.99 1247.18 1247.18 0 0 1-14.2 7.43l-2.75 1.44c-28.77 14.95-58.72 27.65-89.25 38.56l-2.14.77c-76.35 27.28-154.91 42.79-263.41 49.68-7.52.43-15.05.9-22.57 1.37l-6.54.4-9.32.6a1125.27 1125.27 0 0 1-69.15 2.38l-6.71.02-21.29.03h-3.65c-34.89.01-69.64-.12-104.43-3.02-2.86-.24-5.73-.46-8.6-.68-26.15-2.06-52.2-4.95-78.19-8.55l-2.4-.33c-90.23-12.54-179.05-35.85-395.7-148.24a482.35 482.35 0 0 0-6.47-4.76A579.34 579.34 0 0 1 593 2040l-1.77-1.47a507.81 507.81 0 0 1-19.5-17.05 314.32 314.32 0 0 0-6.4-5.65c-4.27-3.73-8.3-7.66-12.3-11.67l-2.2-2.2-4.58-4.58a3869.37 3869.37 0 0 0-6.94-6.93l-4.47-4.48-2.07-2.06A252.66 252.66 0 0 1 520 1970l-2.85-3.28a620.19 620.19 0 0 1-46.46-60.97l-1.26-1.88A581.3 581.3 0 0 1 452 1876l-1.57-2.63c-39.65-66.6-64.3-141.39-79.43-258.37l-.29-3.79c-.89-12.62-.91-25.25-.9-37.9v-3.42c.13-88.51 19.9-175.94 129.19-365.89l1.32-1.58c11.1-13.22 22.88-25.7 35.06-37.92l2.52-2.54A266.57 266.57 0 0 1 553 1148l3.25-2.85A458.54 458.54 0 0 1 584 1123l2.16-1.61c72.83-54.32 159.15-85.05 283.37-97.05 4.37-.04 4.37-.04 8.47-1.34-43.75-7.38-87.7-13.33-132-16l-2.31-.14c-16-.97-31.98-1.06-48-1.05h-2c-20.3.01-40.48.18-60.69 2.19l-2.03.2c-45.08 4.44-91.9 12.05-132.65 32.79l-2.44 1.24-2.14 1.1-1.74.67-2-1c37.12-25.26 76.47-47.3 116.23-68.08l4.76-2.49c66.78-34.83 139.78-60.68 239.2-77.74l3.38-.45c21.43-2.62 42.85-3.62 64.43-3.55h3.62c19.62.05 38.92.77 58.38 3.31l1.99.26c93.31 12.14 178.1 51.43 287.01 128.74l1.89 1.46a580.1 580.1 0 0 1 22.02 17.92c2.85 2.43 5.74 4.78 8.65 7.12 5.08 4.13 9.88 8.5 14.67 12.95a286.23 286.23 0 0 0 6.77 6.05c4.9 4.25 9.66 8.66 14.43 13.06a725.48 725.48 0 0 0 4.5 4.08 591.46 591.46 0 0 1 23.82 23.15l2.63 2.65 2.33 2.37a35.44 35.44 0 0 0 4.89 4.26 35.33 35.33 0 0 1 5.43 5.4c3.14 3.66 6.46 7.1 9.88 10.5l1.6 1.6 4.99 4.93c13.04 12.88 13.04 12.88 18.07 18.85a87.88 87.88 0 0 0 4.93 5.15 115.07 115.07 0 0 1 6.56 7c3.54 4.1 7.23 8.05 10.94 12 4.2 4.48 8.36 8.97 12.37 13.62 2.63 3.04 5.34 6.01 8.03 9a427.7 427.7 0 0 1 4.35 4.88c6.62 7.5 13.65 14.55 20.73 21.62 2.09 2.07 4.16 4.15 6.24 6.23l4.03 4.04 1.85 1.85c4.3 4.28 8.8 8.3 13.4 12.26l3.25 2.85A456.44 456.44 0 0 0 1540 1282l2.2 1.65A435.23 435.23 0 0 0 1577 1307l2.42 1.46c22.64 13.62 46.53 25.1 71.58 33.54l3.11 1.05c30.11 10.06 62.09 17 93.95 17.15l3.1.03c31.54.27 31.54.27 62.84-3.23l3.93-.68c38.33-6.82 75.1-19.02 109.03-38.29 2.04-1.03 2.04-1.03 4.04-1.03-7-7.1-14.47-13.7-22-20.24a920.03 920.03 0 0 1-12-10.76l-2.75-2.49a730.26 730.26 0 0 1-25.37-24.5 3719.33 3719.33 0 0 0-6.81-6.8l-4.4-4.41-2.03-2.02a228.63 228.63 0 0 1-11.15-12.05c-1.91-2.22-3.89-4.38-5.86-6.54a314.19 314.19 0 0 1-11.06-13.03 474.4 474.4 0 0 0-5.8-7c-48.1-57.4-81.51-123.87-86.7-199.16-4.1-57.83-27.69-121.38-64.26-166.81l-1.4-1.76a583.97 583.97 0 0 0-23.41-27.21c-1.8-2-3.56-4-5.31-6.03a466.14 466.14 0 0 0-9.56-10.57 492.62 492.62 0 0 1-21.9-24.92c-2.1-2.55-4.3-4.97-6.54-7.39-14.53-16.04-26.6-34.7-35.69-54.31h-3a86.06 86.06 0 0 1-5-5 799.1 799.1 0 0 0-3.49-3.52l-1.88-1.9c-7.56-7.62-7.56-7.62-15.56-14.79a232.22 232.22 0 0 1-6.69-6.08A325.37 325.37 0 0 0 1512 661l-3.46-2.8c-27.39-22.16-56.57-41.71-86.54-60.2 2.56-5.73 6.99-10.24 11-15l1.48-1.76c10.3-12.23 10.3-12.23 15.98-17.7a74.12 74.12 0 0 0 4.54-5.1c5.23-6.07 11.28-11.36 17.18-16.77a597.6 597.6 0 0 0 4.75-4.4 278.09 278.09 0 0 1 20.17-16.8 606.4 606.4 0 0 0 5.73-4.5c41.7-32.75 90.63-59.76 141.17-75.97-78.75-15.22-166.48-.3-342 64a194.47 194.47 0 0 0-5.92 4.52c-8.82 6.77-16.09 6.1-26.8 4.83-5.8-.62-11.62-.9-17.44-1.23a960.34 960.34 0 0 1-5.97-.37A1401.71 1401.71 0 0 0 1233 511l-2.43-.14c-20.84-1.14-41.7-1.05-62.57-1.04l-12.39-.02c-37.79-.13-75.5.93-113.17 3.95l-3.18.25c-93.09 7.37-186.09 23.4-316.26 70l1.92.12C812.88 589.57 898.69 602.8 995 633c-2.81 2.81-6.04 3.12-9.8 3.96l-5.02 1.16-2.7.62c-38.6 8.83-76.7 19.38-114.48 31.26l-2.76.87a1728.6 1728.6 0 0 0-244.41 98.23l-5.24 2.57a887.94 887.94 0 0 0-39.66 20.71 1807.35 1807.35 0 0 1-9.32 5.11 1022.05 1022.05 0 0 0-44.85 26.22 604.51 604.51 0 0 1-8.35 5 612.24 612.24 0 0 0-33.08 21.07 2812.8 2812.8 0 0 1-7.6 5.15c-14.32 9.7-28.6 19.48-42.3 30.07a9792.43 9792.43 0 0 1-5.34 4.1l-2.6 2a791.87 791.87 0 0 1-9 6.73 339.78 339.78 0 0 0-19.48 15.6c-2.78 2.38-5.6 4.7-8.45 7a599.5 599.5 0 0 0-29.67 25.9 281.91 281.91 0 0 1-6.95 6.23 415.42 415.42 0 0 0-24.86 23.42C317 978 317 978 316 978c.63-15.69 2.03-31.28 3.5-46.91l.78-8.5 1.87-20.03a17973.94 17973.94 0 0 0 3.57-38.44l.98-10.6 1.1-11.75.33-3.55.3-3.21.26-2.8C329 830 329 830 330 828a616.78 616.78 0 0 0-49.8 41 333.07 333.07 0 0 1-5.89 5.19c-11.18 9.8-21.79 20.18-32.31 30.68l-1.64 1.64a287.72 287.72 0 0 0-15.86 16.74c-2.37 2.77-4.88 5.4-7.38 8.06a269.41 269.41 0 0 0-12.85 14.88 363.44 363.44 0 0 1-6.3 7.54 404.1 404.1 0 0 0-15.66 19.53 1333.98 1333.98 0 0 1-4.11 5.41A839.6 839.6 0 0 0 155 1011l-1.35 1.96A711.5 711.5 0 0 0 117 1073l-1.81 3.3c-41.2 75.2-69.81 156.8-91.98 266.35l-.41 2.27c-.37 2.03-.72 4.05-1.07 6.07C21 1354 21 1354 19 1356c-7.4-37.85-12.5-76.05-15.78-114.48-.21-2.47-.44-4.93-.68-7.4a989.81 989.81 0 0 1 .2-183.45c.28-2.83.53-5.65.78-8.48C12.46 942.67 34.42 844.55 92 693l1.5-3.48a1168.61 1168.61 0 0 1 23.6-50.7l2.68-5.45a743.44 743.44 0 0 1 23.72-44.74c1.87-3.28 3.66-6.6 5.45-9.92 10.69-19.79 22.63-38.97 35.05-57.71l1.8-2.71c16.53-25.07 33.72-49.61 52.2-73.29l1.28-1.65c9.7-12.46 19.6-24.76 29.84-36.77a433.48 433.48 0 0 0 8.26-10.02c4.62-5.69 9.6-11 14.62-16.35a237.6 237.6 0 0 0 6.56-7.27 366.64 366.64 0 0 1 22.21-23.65c1.9-1.95 3.68-3.95 5.46-6.02 3.89-4.47 8.01-8.66 12.2-12.83l2.17-2.17a233.3 233.3 0 0 1 12.54-11.63c2.75-2.43 5.3-5.02 7.86-7.64 3.82-3.86 7.68-7.58 11.82-11.1 2.32-2.02 4.56-4.1 6.8-6.2 5.44-5.07 10.97-9.9 16.77-14.55 2.6-2.15 5.11-4.37 7.61-6.65 5.17-4.7 10.56-9.1 16-13.5l3.8-3.1A832.34 832.34 0 0 1 449 234l2.22-1.68A2777.7 2777.7 0 0 1 469 219l2.13-1.59c13.9-10.36 28.4-19.86 42.86-29.42 3.3-2.2 6.6-4.38 9.89-6.6a592.62 592.62 0 0 1 24.75-15.76l1.81-1.1c25.64-15.5 51.9-29.85 78.56-43.53l3.04-1.57C668.94 100.53 707.12 84.31 746 70l3.34-1.24c85.22-31.4 173.88-52.11 303.35-66.01l3.04-.25c6.75-.55 13.5-1.06 20.27-1.5l2.53-.17c21.58-1.34 43.24-1.07 64.84-1.08Zm515 530.63-2.86.67c-4.12 1-7.74 2-11.52 3.95a8557.7 8557.7 0 0 0 3.3 21.14 3636.64 3636.64 0 0 0 2.75 17.53l.5 3.25.49 3.04.42 2.66A22.86 22.86 0 0 0 1654 589l.96-3.02c6.21-19.51 12.54-38.91 20.04-57.98-5.81-.37-11.03 1-16.63 2.38Z"/><path d="m1647 441-11.48 11.47c-50.41 50.72-77.62 124.67-77.96 195.72A188.2 188.2 0 0 0 1568 708l-3 2a46.96 46.96 0 0 1-8.25-7.69 168.63 168.63 0 0 0-18.46-18.3 295 295 0 0 1-6.92-6.32A326.29 326.29 0 0 0 1512 661l-3.46-2.8c-27.39-22.16-56.57-41.71-86.54-60.2 2.56-5.73 6.99-10.24 11-15l1.48-1.76c10.3-12.23 10.3-12.23 15.98-17.7a74.12 74.12 0 0 0 4.54-5.1c5.23-6.07 11.28-11.36 17.18-16.77a597.6 597.6 0 0 0 4.75-4.4 278.09 278.09 0 0 1 20.17-16.8 606.4 606.4 0 0 0 5.73-4.5c40.54-31.84 86.84-56.33 135.17-73.97l3.55-1.34c2.45-.66 2.45-.66 5.45.34Z"/><path fill="#656565" d="M471 740c-1.45 21.73-3.46 43.4-5.51 65.08a12101.6 12101.6 0 0 0-2.46 26.06l-.5 5.41-.71 7.5-.21 2.23A86.63 86.63 0 0 1 460 857h2v2c-1.44 1.2-1.44 1.2-3.49 2.55l-2.3 1.54-2.52 1.66C437.65 875.52 422.27 887.18 407 899l-1.89 1.46a581.63 581.63 0 0 0-22.02 17.92 415.6 415.6 0 0 1-8.71 7.18c-4.77 3.88-9.31 7.95-13.83 12.1a311.32 311.32 0 0 1-6.49 5.78c-3.95 3.43-7.8 6.97-11.64 10.52a282.34 282.34 0 0 1-8.36 7.41c-4.49 3.88-8.61 8.13-12.76 12.36A308.72 308.72 0 0 1 317 978h-1c.62-15.68 2.04-31.26 3.52-46.88l1-10.66 1.9-20.11a55761.01 55761.01 0 0 0 3.4-36.13l1.18-12.66.91-9.68.34-3.53.3-3.22.26-2.8c.23-2.44.23-2.44.19-5.33 1.4-1.36 1.4-1.36 3.38-2.75l2.21-1.58L337 821l2.44-1.72c2.51-1.77 5.03-3.53 7.56-5.28l2.42-1.68c4.51-3.13 9.04-6.23 13.58-9.32 4.88 2.88 4.88 2.88 6 4l-.07-1.76c.08-3.6.16-6.26 2.68-8.98a72.33 72.33 0 0 1 6.7-4.2l2.34-1.41A140.85 140.85 0 0 1 391 785l-.53 3.19c-3.85 18.69-3.85 18.69-1.04 36.84 4 4.8 8.9 7.54 14.57 9.97 1.8-12.34 2.96-24.7 4.06-37.13a6449.9 6449.9 0 0 1 1.27-14.13c.2-2.25.43-4.5.67-6.74l.3-2.9c.97-2.9 2.28-3.53 4.92-5l2.57-1.45 2.71-1.46 2.7-1.52c6.58-3.67 6.58-3.67 7.8-3.67a1262.6 1262.6 0 0 1-3.25 40.24l-.34 3.55-1.73 17.85-.66 6.74-.3 3.1c-.46 4.67-.83 9.33-.99 14.02l-.08 2.37c.59 3.55 2.87 5.18 5.63 7.27l2.16 1.48 2.14 1.6c2.94 2.55 2.94 2.55 6.42 3.78l.15-1.65a33293.52 33293.52 0 0 1 5.43-59.1 10523.33 10523.33 0 0 1 2.36-25.7c.3-3.3.6-6.62.92-9.93l.26-2.96c1.26-13.25 1.26-13.25 4.74-16.28l2.24-1.03 2.42-1.16 2.54-1.13 2.55-1.2c6.1-2.86 6.1-2.86 7.39-2.86Z"/><path fill="#474747" d="M852 2145a101.6 101.6 0 0 1 7.94 6.38l4.57 3.85 2.3 1.93c3.66 3.07 7.43 6 11.22 8.9a111 111 0 0 1 8.15 6.88l1.57 1.43c1.4 1.29 2.77 2.6 4.14 3.93 8.5 4.66 23.54-1.6 32.58-3.77l5.65-1.34 14.8-3.53c7.91-1.9 15.83-3.78 23.75-5.66a4759.98 4759.98 0 0 0 8.29-1.98l5.06-1.2 2.32-.56c2.96-.7 5.6-1.26 8.66-1.26a128.06 128.06 0 0 1 5 5 316.28 316.28 0 0 0 5.94 5.12l1.7 1.44c4.63 3.88 9.32 7.7 14.14 11.35a78.6 78.6 0 0 1 8.33 7.14c5.16 5.04 5.16 5.04 11.9 7.08 4.89-.43 9.5-1.85 14.17-3.3 4.25-1.26 8.56-2.26 12.87-3.28a634.7 634.7 0 0 0 6.67-1.62l3.09-.76 2.74-.68c2.45-.49 2.45-.49 6.45-.49l1-2 2.47.88c58.9 20.38 123.63 30.41 185.53 35.12l3.52.3c23.79 1.96 47.62 2.3 71.48 2.7l-1 2c-1.81.35-1.81.35-4.21.49l-2.73.17-3 .16-3.1.18c-3.33.2-6.64.38-9.96.56l-6.43.38-6.44.38-2.85.16c-3.43.19-6.85.36-10.28.52l-2.63.12c-15.5.72-30.98 1.05-46.5 1.08l-6.71.02-21.29.03h-3.65c-34.89.01-69.64-.12-104.43-3.02-2.86-.24-5.73-.46-8.6-.68-26.15-2.06-52.2-4.95-78.19-8.55l-2.4-.33c-65.88-9.15-130.78-24.15-193.72-45.67l-2.75-.94A561.37 561.37 0 0 1 797 2158v-2a41944.2 41944.2 0 0 1 22.8-5.58l8.35-2.04 2.58-.63c4.07-1 8.14-1.97 12.22-2.9l2.18-.5c2.76-.52 4.25-.45 6.87.65Z"/><path fill="#7E7E7E" d="M609 684a591.64 591.64 0 0 1-2.41 34.54l-.2 2.08a9437.78 9437.78 0 0 1-1.67 17.2l-1.25 12.93-.58 5.96c-.62 6.47-1.03 12.8-.89 19.29l-2.11 1.08a1061.11 1061.11 0 0 0-45.08 24.32 1034.88 1034.88 0 0 1-8.54 4.81c-20.46 11.43-40.34 23.71-60.05 36.39A345.1 345.1 0 0 1 479 847l.36-2.7a810.28 810.28 0 0 0 3.46-32.8l.86-9.53a18708.84 18708.84 0 0 0 3.94-43.66l.56-6.3.8-8.8.22-2.61c.4-4.17.83-7.82 2.8-11.6 1.73-1.25 1.73-1.25 3.83-2.14l2.4-1.04 2.58-1.07 2.67-1.14a346.64 346.64 0 0 0 14.34-6.26l5.62-2.54 2.67-1.24c6.13-2.7 6.13-2.7 9.66-2.07a92.58 92.58 0 0 1 7.54 5.62l2.68 2.2L548 721l.12-3.36c.7-11.42.7-11.42 3.63-14.45A39.5 39.5 0 0 1 559 701c2.03-.73 4.05-1.48 6.06-2.25L570 697a620.95 620.95 0 0 1-1.97 26.55l-.27 2.76-1.1 11.3a889.14 889.14 0 0 0-1.47 16.11 424.3 424.3 0 0 1-.55 6.06c-.4 5.36-.4 5.36 1.66 10.14a35.77 35.77 0 0 0 5.64 4.27A225.11 225.11 0 0 0 579 779l1 1c1.58-3.15 1.52-6.6 1.82-10.07l.22-2.53.49-5.45c.25-2.87.5-5.74.77-8.6l2.19-24.49a5329.25 5329.25 0 0 1 1.85-20.68l.71-7.98.2-2.4c.35-3.66.67-5.67 2.75-8.8a87.9 87.9 0 0 1 7.44-2.69l2.06-.68c2.94-.95 5.4-1.63 8.5-1.63Z"/><path fill="#6D6D6D" d="M189 1912h34v10l-2 1 .56 1.57c3.2 8.9 6.35 17.78 8.94 26.87a586.98 586.98 0 0 0 8.7 27.2 721.33 721.33 0 0 1 2.1 6.33l1.07 3.28.9 2.77c.56 1.95.56 1.95 1.73 2.98l.58-1.77 2.67-8.1.91-2.79a246.7 246.7 0 0 1 5.94-16.12c4.78-11.8 8.6-25.84 4.23-38.3-2.67-3.85-6.95-4.07-11.33-4.92v-10h34v10l-2 1a62346.04 62346.04 0 0 0 7.07 21.78c2.86 8.83 5.73 17.66 8.68 26.47a693.64 693.64 0 0 1 5.06 15.69l.66 2.1A3689.39 3689.39 0 0 1 303 1994a116.38 116.38 0 0 0 7.31-17.31c2.08-6.07 4.2-12.12 6.48-18.12 7.39-17.02 7.39-17.02 6.21-34.57l-11-2v-10a8204.64 8204.64 0 0 1 23.98-.08l8.73-.02 2.77-.01c2.18 0 4.35.05 6.52.11 1 1 1 1 1.1 2.85l-.1 6.15c-2.65 1.46-3.9 2-7 2v2h-2v2h-2l-.69 2.38a56.17 56.17 0 0 1-3.4 7.62c-4.17 8.28-7.42 16.96-10.84 25.57l-2.26 5.67a12536.8 12536.8 0 0 0-5.91 14.85l-6.06 15.18L303 2028h-10a2569 2569 0 0 1-22-66 66.86 66.86 0 0 0-6.44 13.75c-1.5 4.36-3.09 8.57-5.06 12.75-2.46 5.24-4.34 10.61-6.24 16.07a146.9 146.9 0 0 1-5.12 11.88A104.43 104.43 0 0 0 244 2028h-10a668 668 0 0 1-10.9-30.6c-1.28-3.9-2.57-7.78-3.87-11.67l-.8-2.42a3905.78 3905.78 0 0 0-8.04-24l-1.5-4.43c-5.8-20-5.8-20-19.89-33.88v-9Z"/><path fill="#6C6C6C" d="M402 1912c7.91-.07 15.82-.12 23.73-.15 3.68-.02 7.35-.04 11.03-.08 3.55-.03 7.1-.05 10.66-.05l6-.06c9.05 0 16.52 1.15 24.58 5.34v2h2c4.43 7.83 5.4 15.14 3.3 23.93-1.98 6.02-4.77 11.55-9.3 16.07h-2v2a93.87 93.87 0 0 1-5.37 4.13l-3.03 2.19C461 1969 461 1969 459 1969c2.17 4.69 4.83 8.81 7.8 13.05 1.2 1.95 1.2 1.95 1.2 3.95h2a52 52 0 0 1 3.19 4.94c7 11.29 13.28 19.08 25.81 24.06l.06 4.44.04 2.5c-.1 2.06-.1 2.06-1.1 3.06-3.51.28-7.04.23-10.56.25l-2.96.06c-7.63.04-13.58-.66-19.42-6-3.33-4.28-5.85-9.08-8.45-13.83a351.98 351.98 0 0 0-11.45-19.05l-1.12-1.79a568.37 568.37 0 0 0-2.83-4.41C440 1978 440 1978 440 1975h-2l-1-3a6452.35 6452.35 0 0 0-.06 15.64 3152.27 3152.27 0 0 1-.04 12.97l-.01 2.4c0 3.27.07 5.88 1.11 8.99 2.33 1.03 2.33 1.03 5.06 1.69l2.79.76 2.15.55.06 4.44.04 2.5c-.1 2.06-.1 2.06-1.1 3.06a59.12 59.12 0 0 1-4.14.13h-38.08C403 2025 403 2025 402 2024a74.46 74.46 0 0 1-.06-4.56l.03-2.5.03-1.94 1.9-.37 2.48-.5 2.46-.5c2.35-.5 2.35-.5 4.16-2.63.19-2.74.25-5.38.23-8.12v-2.54c0-2.79-.02-5.57-.04-8.35v-5.77l-.05-15.22-.04-15.53c-.02-10.16-.06-20.31-.1-30.47-3.64-1.98-6.88-2.52-11-3v-10Zm34 12v33c8.56 4.93 8.56 4.93 17 5 3.76-1.45 4.8-2.63 6.75-6.19 3.01-8.24 2.89-17.1-.82-25.14L458 1929h-2l-2-4h-2v-2c-6.03-2-10.24-1.3-16 1Z"/><path d="M363 803c3.27 1.8 4.89 2.83 7 6 .07 2.18.07 2.18-.18 4.76l-.27 2.97-.33 3.25-.33 3.43-1.1 11.27-.75 7.84c-.59 6.2-1.19 12.38-1.8 18.57a16512.11 16512.11 0 0 0-3.39 35.13l-1.12 11.5-.69 7.13-.32 3.2a145.1 145.1 0 0 0-.58 18.48c-.14 2.47-.14 2.47-1.98 5.3l-2.54 1.86-2.77 2.16L349 948a324.7 324.7 0 0 0-5 4.5 930.74 930.74 0 0 1-7.43 6.64 303.38 303.38 0 0 0-15.72 15.05A246.42 246.42 0 0 1 317 978h-1c.62-15.68 2.04-31.26 3.52-46.88l1-10.66 1.9-20.11a55761.01 55761.01 0 0 0 3.4-36.13l1.18-12.66.91-9.68.34-3.53.3-3.22.26-2.8c.23-2.44.23-2.44.19-5.33 1.4-1.36 1.4-1.36 3.38-2.75l2.21-1.58L337 821l2.44-1.72c2.51-1.77 5.03-3.53 7.56-5.28l2.42-1.68c4.51-3.13 9.04-6.23 13.58-9.32Z"/><path fill="#6C6C6C" d="M49 1912c7.75-.07 15.5-.12 23.24-.15 3.6-.02 7.2-.04 10.8-.08 3.47-.03 6.96-.05 10.44-.05a731.58 731.58 0 0 0 5.86-.06c18.57 0 18.57 0 24.96 5.22 5.54 5.86 7.16 11.6 6.94 19.54-.76 8.15-4.35 14.9-10.24 20.58-2.73 1.25-2.73 1.25-5 2v2l-2 1 2.16.52c14.47 3.66 14.47 3.66 18.28 9.86 3.3 7.65 2.5 16.74-.07 24.5-4.83 11.4-13.73 19.02-24.75 24.56-11.75 4.42-24.79 3.85-37.14 3.77-2.83-.02-5.67-.02-8.5-.02l-5.4-.02H56c-5.88-.05-5.88-.05-7-1.17a74.46 74.46 0 0 1-.06-4.56l.02-2.5.04-1.94 1.86-.23 2.45-.4 2.43-.35c3.4-1.53 3.88-3.61 5.26-7.02.27-2.67.4-5.1.37-7.76l.01-2.29a810.29 810.29 0 0 0-.02-7.42v-5.19c0-3.61 0-7.23-.02-10.84-.03-4.63-.03-9.26-.02-13.89a3179.37 3179.37 0 0 0-.02-15.82c0-2.39 0-4.77-.02-7.16v-2.12c-.04-3.92-.4-7.04-2.28-10.51-2.4-1.03-2.4-1.03-5.13-1.31L49 1922v-10Zm33 13c-.09 2.52-.12 5.01-.1 7.54v2.28l.04 7.24A5107.37 5107.37 0 0 0 82 1959c2.52.05 5.04.1 7.56.12l2.14.05c6.03.06 11.2-.62 16.18-4.3 3.26-4.41 3.48-8.25 2.76-13.5A79.4 79.4 0 0 0 108 1931h-2l-.75-1.75c-1.73-3.11-3.67-5.57-7-7-8.7-1.02-8.7-1.02-16.25 2.75Zm0 43v40c7.25 4.14 11.8 6.02 20 5 4.57-1.77 8.37-4.5 11.05-8.61 2.38-5.98 1.8-14.8.33-20.97-2.97-6.68-9-11.23-15.38-14.42l-16-1Z"/><path fill="#545454" d="M390 785c1.55 3.1.44 6.1-.12 9.4-3.09 15.5-3.09 15.5-.47 30.5 4.01 4.76 9.01 7.53 14.59 10.1l1 1a75.29 75.29 0 0 1-.23 4.88l-.24 3.19-.28 3.5-.28 3.6c-.53 6.81-1.13 13.62-1.78 20.43l-.2 2.16-1.02 10.44-.38 3.87-.37 3.65c-.2 2.85-.12 5.49.09 8.33-.36 4.55-.36 4.55-2.99 7.14a103.11 103.11 0 0 1-3.63 2.81l-1.94 1.54a286.11 286.11 0 0 1-3.92 3.05c-2.49 1.92-4.9 3.91-7.33 5.91l-2.63 2.13a347.32 347.32 0 0 0-6.56 5.56l-1.91 1.66a751.76 751.76 0 0 0-3.72 3.25c-2.54 2.22-4.44 3.82-7.68 4.9-.12-8.01.24-15.93.83-23.92l.27-3.76c.84-11.38 1.76-22.75 2.71-34.11.64-7.62 1.25-15.24 1.78-22.87.47-6.69 1-13.37 1.58-20.05.31-3.52.6-7.04.81-10.57 1.44-23.09 1.44-23.09 7.97-28.88a51.74 51.74 0 0 1 11.22-6.06c2.1-.83 2.1-.83 4.83-2.78Z"/><path fill="#868686" d="M668 666c-.87 12.3-1.85 24.6-3.02 36.88l-.28 2.86c-.45 4.75-.9 9.49-1.38 14.23-.88 9.03-1.64 17.94-1.32 27.03l-15.1 7.15-5.14 2.44a8801.67 8801.67 0 0 1-7.4 3.5l-2.3 1.1A156.76 156.76 0 0 1 621 766c-.14-7.3.4-14.43 1.1-21.7l.33-3.58 1.07-11.28.72-7.68L626 703c6.35 3.8 12.13 8.49 18 13l4-45c19-5 19-5 20-5Z"/><path fill="#6C6C6C" d="M471 740c-1.45 21.73-3.46 43.4-5.51 65.08a12101.6 12101.6 0 0 0-2.46 26.06l-.5 5.41-.71 7.5-.21 2.23A86.63 86.63 0 0 1 460 857h2v2c-1.59 1.31-1.59 1.31-3.8 2.79l-2.4 1.6-2.55 1.67-2.5 1.68c-3.6 2.4-6.52 4.3-10.75 5.26-.1-6.64.26-13.12.89-19.73l.28-3.14.95-10.17.65-7.1 1.4-14.87 1.75-19.03a8973.14 8973.14 0 0 1 2.02-21.68l.91-9.8.27-2.92c1.27-13.16 1.27-13.16 4.74-16.18l2.24-1.03 2.42-1.16 2.54-1.13 2.55-1.2c6.1-2.86 6.1-2.86 7.39-2.86Z"/><path fill="#707070" d="M510 721c1 2.98 1.04 4.34.77 7.39l-.24 2.72-.27 2.97-.28 3.14c-.3 3.44-.61 6.87-.93 10.3l-.65 7.15a8565.61 8565.61 0 0 1-1.38 15 4508.27 4508.27 0 0 0-1.73 19.22 3645.21 3645.21 0 0 1-1.35 14.77l-.64 7.09c-.28 3.3-.6 6.6-.91 9.9l-.25 2.97c-.53 5.28-1.14 8.55-5.14 12.38-1.9 1.47-1.9 1.47-3.82 2.64l-2.12 1.3-2.18 1.31-2.21 1.35c-5.13 3.13-5.13 3.13-7.67 4.4l.36-2.7a810.28 810.28 0 0 0 3.46-32.8l.86-9.53a18708.84 18708.84 0 0 0 3.94-43.66l.56-6.3.8-8.8.22-2.61c.4-4.17.82-7.83 2.8-11.6 1.88-1.3 1.88-1.3 4.13-2.24l2.44-1.04 2.56-1.03 2.57-1.09a464.78 464.78 0 0 1 6.3-2.6Z"/><path fill="#7E7E7E" d="M540 602c1.2 3.6.86 6.57.51 10.27l-.19 2.15a1109.02 1109.02 0 0 1-.42 4.52c-.21 2.29-.41 4.57-.6 6.86l-.41 4.4-.18 2.05A61.24 61.24 0 0 1 536 645l-2.98.52A1622.72 1622.72 0 0 0 477 656.06l-2.4.5a460.79 460.79 0 0 0-32 7.8l-2.51.7-2.13.63c-2.26.36-3.8 0-5.96-.69a704.68 704.68 0 0 1 48.03-30.13c5.75-3.31 11.45-6.69 17.14-10.1A39.2 39.2 0 0 1 505 621c1.63.9 1.63.9 3.35 2.3l1.89 1.52 1.95 1.62 1.98 1.6A676.47 676.47 0 0 1 519 632l.18-3.36.26-4.39.12-2.21c.44-7.46.44-7.46 1.44-10.04 1.86-1.37 1.86-1.37 4.25-2.58l2.6-1.33 2.71-1.34 2.74-1.39A694.14 694.14 0 0 1 540 602Zm-10 111c.43 16.38-1.18 32.85-2.43 49.17a769.34 769.34 0 0 0-1.14 17.01c-2.2 39.97-2.2 39.97-10.48 47.76A43.83 43.83 0 0 1 500 834c0-2.51.14-4.9.37-7.4l.24-2.72.28-2.98.28-3.14.95-10.32.32-3.55a22960.76 22960.76 0 0 1 3.14-34.04 8347.24 8347.24 0 0 1 2.36-25.7l.91-9.92.27-2.97.26-2.74.22-2.36c.44-2.37 1.17-4.1 2.4-6.16 1.66-1.1 1.66-1.1 3.62-1.92l2.14-.92 2.24-.91 2.23-.96c5.44-2.29 5.44-2.29 7.77-2.29Z"/><path fill="#727272" d="M533 711a29.48 29.48 0 0 1 16 11c1.71 6.3.58 13.13-.04 19.52l-.46 5.74c-.33 4-.7 8-1.1 11.99-.5 5.09-.88 10.18-1.22 15.28-.28 3.95-.64 7.9-1.03 11.84-.17 1.87-.31 3.75-.43 5.63-.94 14.22-.94 14.22-5.63 18.91-4.75 3.67-11.84 9.09-18.09 9.09-.1-6.72.17-13.32.78-20l.25-2.87.83-9.26.3-3.2c.5-5.59 1-11.17 1.52-16.76.53-5.77 1.04-11.55 1.55-17.32.4-4.45.8-8.89 1.22-13.33l.57-6.39c.26-2.97.53-5.93.81-8.9l.23-2.68c.2-2.1.56-4.2.94-6.29l3-2Z"/><path fill="#3E3E3E" d="M852 2145a101.6 101.6 0 0 1 7.94 6.38l4.57 3.85 2.3 1.94c3.09 2.58 6.26 5.05 9.44 7.52A523.77 523.77 0 0 1 896 2181c-7.24 3.86-14.31 5.85-22.4 3.78a269.6 269.6 0 0 1-6.98-2.28l-3.84-1.23a707.57 707.57 0 0 1-10.5-3.5l-7.14-2.39c-16.2-5.4-32.34-10.87-48.14-17.38v-2a41944.2 41944.2 0 0 1 22.8-5.58l8.35-2.04 2.58-.63c4.07-1 8.14-1.97 12.22-2.9l2.18-.5c2.76-.52 4.25-.45 6.87.65ZM387 822a101.21 101.21 0 0 1 18 14 75.29 75.29 0 0 1-.23 4.88l-.24 3.19-.28 3.5-.28 3.6c-.53 6.81-1.13 13.62-1.78 20.43l-.2 2.16-1.02 10.44-.38 3.87-.37 3.65c-.2 2.85-.11 5.48.1 8.32-.33 4.1-.41 4.6-3.14 7.29a108.3 108.3 0 0 1-3.74 2.92l-1.85 1.48A269.47 269.47 0 0 1 379 921c-1.23-4.53-.85-8.73-.4-13.33l.24-2.51c.25-2.73.51-5.45.78-8.18a7133.5 7133.5 0 0 1 1.96-20.72c.4-4.08.77-8.15 1.16-12.22l1.38-14.62.26-2.8.76-7.9.22-2.32A448.76 448.76 0 0 1 387 822Z"/><path fill="#858585" d="m707 657-1.85 21.47a9771.38 9771.38 0 0 0-.86 9.97 2158.49 2158.49 0 0 1-1.7 18.92c-.37 3.95-.67 7.89-.83 11.86-.5 9.56-.5 9.56-3.88 12.83a40.65 40.65 0 0 1-8.5 3.45l-3.01 1.08c-2.44.87-4.9 1.66-7.37 2.42l.38-2.75a634.1 634.1 0 0 0 3.13-27.5l.4-4.17a9876.34 9876.34 0 0 0 2.06-21.92L687 661l7.75-2 2.21-.58A38.38 38.38 0 0 1 707 657Z"/><path fill="#8A8A8A" d="M763 648c1 1 1 1 1.13 3.14a186.12 186.12 0 0 1-1.07 19.27l-.58 5.74-.92 8.93c-.3 2.9-.6 5.8-.88 8.7l-.3 2.72-.24 2.5-.23 2.2c-.1 2.06-.1 2.06 2.09 3.8-3.27 1.37-6.54 2.72-9.81 4.06l-2.82 1.18-2.7 1.1-2.5 1.04C742 713 742 713 739 712l6-63c13-3 13-3 18-1Z"/><path fill="#7F7F7F" d="M580 584a218.2 218.2 0 0 1-.73 21.41l-.24 2.83-.52 5.85a710.38 710.38 0 0 0-.5 6c-.23 2.9-.48 5.8-.74 8.7l-.2 2.71-.25 2.5-.19 2.2c-.63 1.8-.63 1.8-2.44 3.01-3.39 1.22-6.88 1.53-10.44 1.91l-2.26.27-5.49.61.26-3.08a29939.35 29939.35 0 0 0 1.38-16.48c.86-10.15 1.67-20.29 2.36-30.44l8.88-4 2.55-1.16 2.44-1.09 2.25-1.02C578 584 578 584 580 584Z"/><path fill="#7E7E7E" d="m626 703 2.29 1.39c2 1.19 4.03 2.32 6.08 3.42 3.74 2.23 7.2 4.5 9.63 8.19 1.36 5.38.19 11-.65 16.4-.6 4.41-.73 8.84-.91 13.29l-.26 4.82L642 754l5-2v2l-12.44 6-3.58 1.73-3.41 1.65-3.16 1.52C622 766 622 766 621 766c-.14-7.3.4-14.43 1.1-21.7l.33-3.58 1.07-11.28.72-7.68L626 703Z"/><path fill="#6E6E6E" d="M407 2074c4.08-.1 8.15-.17 12.22-.22l4.16-.08c2-.05 3.99-.07 5.98-.1l3.64-.05c3 .45 3 .45 4.89 2.27 1.67 3.27 1.54 5.54 1.11 9.18a50 50 0 0 1-4 7l2.44 1.38C440 2095 440 2095 441 2097c.43 5.46-.3 9.22-3 14-4.66 3.69-8.22 5.13-14.1 5.1l-2.98-.01-3.1-.03-3.15-.01-7.67-.05v-4l4-2v-31l-4-2v-3Zm14 5v11c3.42.17 3.42.17 7 0 2.3-1.88 2.3-1.88 2.31-4.94-.08-2.98-.08-2.98-1.44-4.94-2.65-1.59-4.84-1.32-7.87-1.12Zm0 16v15c6.33 1.63 6.33 1.63 8.88-.06 1.58-2.73 2-4.79 2.12-7.94-1.6-3.53-2.74-4.83-6-7h-5Z"/><path fill="#878787" d="M657 580a239.06 239.06 0 0 1 5.48 4.15c2.47 1.9 2.47 1.9 5.19 3.34 3.11 1.92 5.15 3.55 7.33 6.51.85 5.9.04 11.4-.81 17.25a760.98 760.98 0 0 0-.55 4.7c-.63 5.42-1.31 10.75-2.64 16.05l-19 1c.92-12.97 1.84-25.93 3.06-38.88l.24-2.58c.38-3.9.82-7.71 1.7-11.54Z"/><path fill="#6D6D6D" d="M338 2069v20l6-5c3.14-.88 5.83-.7 9 0 3.27 2.04 4.63 3.55 5.59 7.31.74 5.43.29 9.58-1.59 14.69l-1 3h-2l-2 4h-2v2c-15.74 2.11-15.74 2.11-23 3l.5-3.51c.5-4.1.61-8.13.6-12.27v-2.12l-.04-6.6a4131.31 4131.31 0 0 0-.06-15.5l-4-1v-4c1.58-.68 3.16-1.34 4.75-2l2.67-1.13c2.58-.87 2.58-.87 6.58-.87Zm3.44 24.06c-3.27 3.94-5.18 7.64-5.75 12.75.12 2.4.12 2.4 2.31 4.19 3.1.8 5.18 1.27 8.25.25 2.93-2.09 3.72-4.12 4.5-7.56.31-4.57-.73-7.65-2.75-11.69-4.03-.42-4.03-.42-6.56 2.06Z"/><path fill="#A9A9A9" d="M1628 543a9292.7 9292.7 0 0 1 2.5 14.44l.4 2.27c2.93 17.08 5.71 34.18 8.47 51.29l.5 3.13.95 5.84.43 2.63.37 2.3c.36 2.12.36 2.12.94 4.23.57 2.44.18 4.2-.34 6.64l-.55 2.7-.6 2.78-.6 2.84L1639 651c-2.24-2.24-2.36-2.92-2.85-5.93l-.41-2.48-.44-2.73-.47-2.88c-.52-3.14-1.02-6.29-1.52-9.44l-1.07-6.54a6614 6614 0 0 1-2.23-13.75c-.94-5.87-1.9-11.74-2.86-17.61a10575.3 10575.3 0 0 1-4.71-29.1l-.45-2.72c-1.37-8.62-1.37-8.62-.99-11.82 2.38-1.82 3.96-3 7-3Z"/><path fill="#7F7F7F" d="M540 602c1.2 3.6.86 6.57.51 10.27l-.19 2.15a1109.02 1109.02 0 0 1-.42 4.52c-.21 2.29-.41 4.57-.6 6.86l-.41 4.4-.18 2.05A61.24 61.24 0 0 1 536 645l-5.63 1-3.16.56c-3.12.43-6.07.51-9.21.44-.1-6.84.29-13.51.94-20.31l.26-2.96c.5-5.36.5-5.36.8-7.73l.27-2.14c1.04-2.65 2.47-3.17 4.98-4.44l2.6-1.33 2.71-1.34 2.73-1.39A694.14 694.14 0 0 1 540 602Z"/><path fill="#6B6B6B" d="M358 2085h14l.31 4.06c.49 4.5 1.71 7.9 3.69 11.94 2.12-3.53 2.53-6.94 3-11l-3-1v-4h16v4l-1.83.62c-3.08 1.96-3.59 4.07-4.86 7.45l-1.43 3.72-1.44 3.9-1.46 3.84-2.7 7.14c-4.34 11.25-4.34 11.25-7.28 13.33-3 .97-5.85 1.28-9 1-2.62-2.12-2.62-2.12-4-5 .25-2.81.25-2.81 1-5 3.02.59 6.02 1.23 9 2 2.4-3.9 2.4-3.9 2.73-8.31A101.48 101.48 0 0 0 361 2090l-3-1v-4Z"/><path fill="#6D6D6D" d="M497 2085h13l.25 2.88c.69 5.01 2.75 9.5 4.75 14.12a344.57 344.57 0 0 0 1.5-3.75l.84-2.11c.86-2.4.86-2.4.66-6.14l-4-1v-4h17v4l-1.88.74c-2.58 1.54-3.02 2.56-4.08 5.34l-.98 2.5-1 2.67-1.05 2.72a367.68 367.68 0 0 0-6.8 19.28c-1.6 3.65-3.42 6.04-7.17 7.54-4.14.58-5.52.57-9.1-1.92-1.94-2.87-1.94-2.87-1.75-5.68l.81-2.19h4v2h5c2.06-2.82 3.13-4.93 2.7-8.46-1.77-6.85-4.59-13.2-7.7-19.54l-.96-2.25c-.99-2.1-.99-2.1-4.04-2.75v-4Z"/><path fill="#ADADAD" d="M1607 556h3l.52 3.32a5006.67 5006.67 0 0 0 1.93 12.21l.84 5.29 1.2 7.6.37 2.37c.75 4.66 1.72 8.77 4.12 12.9 1.37 3.1 1.88 6.28 2.44 9.62l.39 2.21 1.23 7.27.43 2.54c.75 4.45 1.5 8.9 2.23 13.35l1.85 10.9c3.5 20.23 6.72 39.8 5.45 60.42h-2l-9.39-57.34a80057.25 80057.25 0 0 0-4.36-26.63l-3.8-23.2-2-12.29-1.9-11.56a3601.33 3601.33 0 0 0-.7-4.25 341631303.94 341631303.94 0 0 0-1.47-9.07C1607 559 1607 559 1607 556Z"/><path fill="#6C6C6C" d="M174.06 2005.5c2.45 3.48 2.65 6.92 2.43 11.1-.95 4.63-3.6 7.01-7.37 9.78-4.6 1.35-8.58 1.17-12.87-.94-3.77-2.42-5.07-5.1-6.25-9.44.24-3.63.85-6.56 2-10h2v-2c6.7-4.46 13.93-3.5 20.06 1.5Z"/><path fill="#6D6D6D" d="M386.5 2004.94c2.92 4 3 8.27 2.5 13.06-1.87 4.56-4.66 6.75-9 9-4.58.48-7.86 0-12-2v-2h-2c-3.12-4.68-2.83-9.53-2-15 2-3.58 4.6-5.4 8.31-7 5.22 0 10 .7 14.19 3.94ZM524 2003c3.39 2.63 4.7 4.75 5.27 9.05.2 4.17.16 7.04-2.52 10.39-3.6 3.35-5.19 4.38-10.06 4.93-4.7-.47-6.84-1.65-10.69-4.37-2.79-4.37-2.77-8.99-2-14 1.72-3.62 4.24-5.58 7.75-7.5 4.43-.68 8.06-.07 12.25 1.5ZM480 635c.98 2.94 1.04 4.06.66 7.01l-.28 2.3-.32 2.38-.3 2.41-.76 5.9a1406.94 1406.94 0 0 1-15 4l-3.4.9c-3.76.98-7.52 1.95-11.29 2.91l-3.76 1-3.56.9-3.2.82c-2.71.46-4.23.38-6.79-.53a662.81 662.81 0 0 1 48-30Z"/><path fill="#535353" d="M423 851c4.1 2.55 7.97 5.38 11.81 8.31l2.9 2.18c2.87 3.14 2.9 5.36 3.29 9.51l2 1-9.19 6.81-2.62 1.95-2.55 1.89-2.33 1.73c-2.37 1.66-4.8 3.16-7.31 4.62a23857.92 23857.92 0 0 1 1.2-15.8l.8-10.2.25-3.27.25-3.02.22-2.69C422 852 422 852 423 851Z"/><path fill="#717171" d="m504 621 1.5 1.14 2.06 1.55 2.19 1.7c2.15 1.65 2.15 1.65 4.38 2.56 2.39 1.14 3.46 1.77 4.87 4.05.3 5.44-.25 10.62-1 16l-8.31 1.5-2.38.43-2.3.41-2.1.38C501 651 501 651 498 651c.28-3.9.57-7.8.88-11.69l.23-3.34.26-3.23.22-2.97A24.7 24.7 0 0 1 502 622l2-1Z"/><path fill="#6D6D6D" d="M494 2069v43h4v4h-18v-4h4l1-35h-5c.2-1.86.2-1.86 1-4 2.18-1.27 2.18-1.27 4.88-2.25l2.68-1.02c2.44-.73 2.44-.73 5.44-.73Zm-18 0-.5 2.5a76.92 76.92 0 0 0-.63 11.45v20.79c-.05 3.76-.05 3.76 1.13 7.26l3 1v4h-17v-4l3-1 1-34h-4v-4c1.58-.68 3.16-1.34 4.75-2l2.67-1.13c2.58-.87 2.58-.87 6.58-.87Z"/><path fill="#717171" d="m544 1009 2 1-2 3 1.68 1.24 2.2 1.63 2.18 1.62C552 1019 552 1019 554 1021l-1.9.53c-18.71 5.26-36.74 10.97-54.14 19.71l-2.28 1.13-2.01 1.03-1.67.6-2-1a824.53 824.53 0 0 1 33.34-21.36c2.65-1.64 5.3-3.29 7.93-4.95l4.92-3.07 2.3-1.46A115 115 0 0 1 544 1009Z"/><path fill="#747474" d="M563 767a101.21 101.21 0 0 1 18 14c.04 2 .04 4 0 6l-7.19 3.94-2.04 1.13C568.2 794 565.1 795.5 561 796c.5-9.68 1-19.35 2-29Z"/><path fill="#6D6D6D" d="m456 2084 1 27 3 1v4h-17v-4l4-2 1-19h-5c.13-1.81.13-1.81 1-4 4.47-2.91 6.41-3 12-3Z"/><path fill="#7F7F7F" d="m1643 535 2 1c.54 1.93.54 1.93.96 4.5l.49 2.9.5 3.17.52 3.24 1.1 6.82 1.68 10.39 1.07 6.61.51 3.13c1.26 8.01 1.7 14.47-.83 22.24l-2-1c-.58-2.16-.58-2.16-1.05-5.05l-.55-3.27-.56-3.56-.6-3.65-1.24-7.66c-.62-3.9-1.26-7.8-1.9-11.7l-1.2-7.43-.58-3.53c-.86-5.45-1.56-10.63-1.32-16.15l3-1Z"/><path fill="#AAA" d="M1616 549h3c2.38 14.18 4.74 28.37 7.1 42.56a8945.6 8945.6 0 0 0 3.29 19.76c1.06 6.36 2.12 12.72 3.16 19.09l1.22 7.27c.58 3.4 1.14 6.8 1.7 10.2l.51 3.02c.96 6 .96 11.09.02 17.1h-1a115074.22 115074.22 0 0 1-14.2-86.46l-1.28-7.74-1.78-10.81-.53-3.25-.49-2.97-.42-2.59c-.3-2.18-.3-2.18-.3-5.18Z"/><path fill="#7F7F7F" d="M597 614a123.62 123.62 0 0 1 6 4l2.85 1.99c7.8 5.82 7.8 5.82 8.86 9.37-.02 2.2-.02 2.2-.71 5.64l-6.69 1-3.76.56c-2.9.36-5.63.53-8.55.44-.36-18.29-.36-18.29 2-23Z"/><path fill="#B2B2B2" d="M1622 545c2.49 3.73 2.91 7.28 3.6 11.61l.45 2.67 1.43 8.75 1 6.1 2.08 12.8a4808.6 4808.6 0 0 0 2.68 16.34 5038.1 5038.1 0 0 1 2.06 12.6l.98 6.02c3.33 20.14 3.33 20.14 2.72 29.11-2.24-2.24-2.36-2.92-2.85-5.93l-.41-2.48-.44-2.73-.47-2.88c-.52-3.14-1.02-6.29-1.52-9.44l-1.07-6.54a6614 6614 0 0 1-2.23-13.75l-2.85-17.61a10575.3 10575.3 0 0 1-4.72-29.1l-.45-2.72c-1.28-8.07-1.28-8.07-.99-11.82l1-1Z"/><path fill="#9F9F9F" d="M1626 543h2a9292.7 9292.7 0 0 1 2.5 14.44l.4 2.27c2.93 17.08 5.71 34.18 8.47 51.29l.5 3.13.95 5.84.43 2.63.37 2.3c.35 2.12.35 2.12.99 4.2.56 2.73-.45 4.44-1.61 6.9h-1a33614.11 33614.11 0 0 1-8.67-52.62 9383.17 9383.17 0 0 1-2.64-16.08 3205.65 3205.65 0 0 0-1.02-6.16l-1.4-8.58-.44-2.6a168.5 168.5 0 0 1-.83-5.96l1-1Z"/><path fill="#AAA" d="m1631 540 2 1c.7 2.84.7 2.84 1.33 6.69l.35 2.12c.4 2.32.77 4.65 1.14 6.98l.8 4.84 1.66 10.2 2.13 13.01a4189.86 4189.86 0 0 1 3.52 21.57l.63 3.86c.47 3.98.52 7.73.44 11.73l-2 1-.49-2.98a50655.05 50655.05 0 0 0-4.54-27.77l-2.34-14.27-2.26-13.77a5354.06 5354.06 0 0 1-.86-5.26l-1.2-7.36-.36-2.2c-.48-2.9-1.02-5.6-1.95-8.39l2-1Z"/><path fill="#7E7E7E" d="m459 647 2 1-1 11a119.95 119.95 0 0 1-16.25 5.25l-2.11.57c-3.62.9-6.08 1.27-9.64.18l27-18Z"/><path fill="#999" d="M1633 539h2a8661.5 8661.5 0 0 1 5.12 29.84l1.77 10.34a2849.53 2849.53 0 0 1 2.96 17.47c.4 2.27.77 4.53 1.15 6.8l.66 3.91A36.5 36.5 0 0 1 1646 618c-2.13-3.6-2.68-7.13-3.34-11.23l-.36-2.19c-.4-2.37-.78-4.75-1.15-7.12l-.81-4.96-1.67-10.36a4169.22 4169.22 0 0 0-2.16-13.32 4942 4942 0 0 1-3.55-21.98l-.64-3.94-.32-2.9 1-1Z"/><path fill="#7F7F7F" d="M1636 538c2.56 2.56 2.56 4.13 3.15 7.68l.6 3.62.63 3.92.67 4.03 1.37 8.47c.58 3.6 1.17 7.19 1.77 10.78l1.37 8.34.97 5.9c1.04 6.5 1.71 12.66 1.47 19.26l-2 1a10802.22 10802.22 0 0 1-4.35-26.34l-2.03-12.23a3375.75 3375.75 0 0 1-2.69-16.3 987.4 987.4 0 0 1-1.03-6.32l-.6-3.63c-.29-3.03-.08-5.26.7-8.18Z"/><path fill="#AAA" d="M1637 537h3l.37 2.3a23305.9 23305.9 0 0 0 3.49 21.46 10130.97 10130.97 0 0 1 3.52 21.67l.66 4.06c.3 1.9.62 3.79.93 5.68l.53 3.27c.38 2.54.38 2.54 1.5 4.56-.6 2.02-1.27 4.02-2 6h-1a38133.54 38133.54 0 0 1-8.23-49.07l-.73-4.39-1.03-6.14-.6-3.53C1637 540 1637 540 1637 537Z"/><path d="m1643 535 2 1c.54 1.93.54 1.93.96 4.5l.49 2.9.5 3.17.52 3.24 1.1 6.82 1.68 10.39 1.07 6.61.51 3.13c.8 5.12 1.58 10.06 1.17 15.24l-2 2a8581.24 8581.24 0 0 1-3.9-23.28l-1.33-7.92-1.9-11.38-.61-3.58-.55-3.34-.49-2.93c-.21-2.5 0-4.2.78-6.57Z"/><path fill="#717171" d="M448 2070h8c.04 2.33.04 4.67 0 7-1 1-1 1-3.94 1.25L449 2078c-2-3-2-3-1.63-5.69l.63-2.31Z"/><path fill="#A4A4A4" d="M1660 817a56.09 56.09 0 0 1 6.25 10.13l1.64 3.19L1669 833l-1 2c-3.88-1.53-5.93-3.37-8-7-.33-3.7-.23-7.3 0-11Z"/><path fill="#A2A2A2" d="M1653 803c2.62 3.06 3 3.73 3 8l2 1v12c-4-3-4-3-4.55-5l-.06-2.23-.1-2.43-.04-2.53-.09-2.56c-.07-2.08-.12-4.17-.16-6.25Z"/><path fill="#636363" d="M504 1035v3a762.8 762.8 0 0 1-5.88 3.06l-3.3 1.73L492 1044l-2-1 5.88-4 3.3-2.25C502 1035 502 1035 504 1035Z"/><path fill="gray" d="M720 714c2.89.4 3.82.79 5.75 3.06L727 719l-7 2v-7Z"/><path fill="#666" d="M440 660v5l-8 1c5.8-6 5.8-6 8-6Z"/><path fill="#1F1F1F" d="m488 1044 2 1Z"/></svg>