<?xml version="1.0"?><svg version="1.2" baseProfile="tiny-ps" viewBox="0 0 300 300" xmlns="http://www.w3.org/2000/svg" xmlns:xlink="http://www.w3.org/1999/xlink"><title>BWR</title><g><g fill="#ccc" transform="matrix(.1 0 0 -.1 0 300)"><path d="M1185 2980C644 2858 207 2461 31 1934l-31-92v-283l1-284 33 90c42 114 76 181 138 272l50 72 86 83 87 83 72 48c135 90 308 160 480 194 51 11 96 23 100 27l8 9-150-6-150-6-86-15c-48-9-95-18-105-22l-19-6 20 16c10 9 63 39 117 66l97 50 118 39 118 39 100 18 100 18 170-1h170l80-16 80-15 70 33c39 18 99 40 135 49l65 17 113 6c61 3 112 3 112 0s-18-32-40-64l-41-57-15-54c-18-62-13-76 11-34l18 29 40 27c23 14 47 26 55 26h14l-6-22c-4-13-16-56-26-97l-20-74v-125l65-129 64-128 10-85 11-85 35-70 35-70 52-61c29-33 72-78 95-98l43-38-11-20c-20-37-82-99-124-124l-42-24-54-10-55-10-54 10-55 9-240 121-240 120-100 26-100 26-105-5-105-4-60-23c-33-13-89-42-125-65l-65-42-62-62-61-62-35-67c-19-37-43-94-53-127l-18-60 1-90v-90l17-64c67-248 273-453 550-547l70-24h625l82 30c161 59 294 145 437 284 147 143 253 295 336 486l36 81v1124l-44 98-45 98-74 112-75 113-93 97-92 98-105 79-105 79-116 59c-136 70-249 112-384 141l-97 21-252-1-253-1-80-18zM28 373l12-5V254l-12-12-12-12h71l27 21c30 24 33 44 9 58l-17 9 13 16 13 16-6 15-5 15-53-1c-29 0-47-3-40-6zm72-28v-25H60v50h40v-25zm-2-47c7-7 12-20 12-30v-18H60v60h13c7 0 18-5 25-12zm150 7c15-41 30-75 33-75 4 0 14 21 25 48l18 47 15-47c8-27 18-48 22-48s19 30 34 68c15 37 32 70 38 74l12 8h-70l13-9 14-8-13-42c-7-22-16-41-20-41s-13 23-20 50l-13 50h-33l5-29 4-29-14-27-14-27-14 56-13 56h-35l26-75zm267 0v-75h44l-6 35c-3 19-3 35 0 35s14-16 26-35l20-35h16c21 0 19 7-10 42l-25 30 19 24 20 25-6 15-5 14h-93v-75zm70 40v-20l-17-3-18-3v52l18-3 17-3v-20zM160 245v-15h30v30h-30v-15zm295 6-5-10 10-6 10-6 10 6 10 6-5 10c-4 5-10 9-15 9s-11-4-15-9zm195-6v-17l11 4c6 2 11 8 11 13s-5 11-11 13l-11 4v-17zm-28-105v-35l5 18c2 9 2 25 0 35l-5 17v-35zm-100-5v-30l5 18c2 9 2 23 0 30l-5 12v-30zm18 11c0-8 4-17 9-20l9-6-5 20c-6 23-13 26-13 6zm52-11v-30l5 18c2 9 2 23 0 30l-5 12v-30zm-176 7-5-9h14c8 0 15 4 15 9 0 4-4 8-9 8-6 0-12-4-15-8zm34 1c0-4 4-14 9-22l9-13 5 8c3 5-1 15-9 22s-14 9-14 5zm122-13v-25l5 13c2 6 2 18 0 25l-5 12v-25zm78-11v-10l10 6c6 3 10 8 10 11 0 2-4 4-10 4-5 0-10-5-10-11z"/></g><g fill="#bbb" transform="matrix(.1 0 0 -.1 0 300)"><path d="M1185 2980C644 2858 207 2461 31 1934l-31-92v-283l1-284 33 90c42 114 76 181 138 272l50 72 86 83 87 83 72 48c135 90 308 160 480 194 51 11 96 23 100 27l8 9-150-6-150-6-86-15c-48-9-95-18-105-22l-19-6 20 16c10 9 63 39 117 66l97 50 118 39 118 39 100 18 100 18 170-1h170l80-16 80-15 70 33c81 38 178 63 286 73l76 7-231 185c-127 102-287 231-357 288l-127 102-84-1-83-1-80-18zm987-624-43-62-15-49c-8-27-13-54-11-59l3-10 19 31 18 30 40 27c23 14 47 26 55 26h14l-6-22c-4-13-16-56-26-97l-20-74v-125l65-129 64-128 10-85 11-85 35-70 35-70 52-61c29-33 72-78 95-98l43-38-11-20c-20-37-82-99-124-123l-42-25-53-10-54-10-56 10-55 9-240 121-240 120-100 26-100 26-105-5-105-4-60-23c-33-13-89-42-125-65l-65-42-62-62-61-62-35-67c-19-37-43-94-53-127l-18-60 1-90v-90l17-64c67-248 273-453 550-547l70-24h625l82 30c161 59 294 145 437 284 147 143 253 295 336 486l36 81v858l-197 158c-109 86-200 160-203 163s-94 77-203 164l-198 158 12 14c7 8 10 16 8 19-3 2-24-24-47-59zM28 373l12-5V254l-12-12-12-12h71l27 21c30 24 33 44 9 58l-17 9 13 16 13 16-6 15-5 15-53-1c-29 0-47-3-40-6zm72-28v-25H60v50h40v-25zm-2-47c7-7 12-20 12-30v-18H60v60h13c7 0 18-5 25-12zm150 7c15-41 30-75 33-75 4 0 14 21 25 48l18 47 15-47c8-27 18-48 22-48s19 30 34 68c15 37 32 70 38 74l12 8h-70l13-9 14-8-13-42c-7-22-16-41-20-41s-13 23-20 50l-13 50h-33l5-29 4-29-14-27-14-27-14 56-13 56h-35l26-75zm267 0v-75h44l-6 35c-3 19-3 35 0 35s14-16 26-35l20-35h16c21 0 19 7-10 42l-25 30 19 24 20 25-6 15-5 14h-93v-75zm70 40v-20l-17-3-18-3v52l18-3 17-3v-20zM160 245v-15h30v30h-30v-15zm295 6-5-10 10-6 10-6 10 6 10 6-5 10c-4 5-10 9-15 9s-11-4-15-9zm195-6v-17l11 4c6 2 11 8 11 13s-5 11-11 13l-11 4v-17zm-28-105v-35l5 18c2 9 2 25 0 35l-5 17v-35zm-100-5v-30l5 18c2 9 2 23 0 30l-5 12v-30zm18 11c0-8 4-17 9-20l9-6-5 20c-6 23-13 26-13 6zm52-11v-30l5 18c2 9 2 23 0 30l-5 12v-30zm-176 7-5-9h14c8 0 15 4 15 9 0 4-4 8-9 8-6 0-12-4-15-8zm34 1c0-4 4-14 9-22l9-13 5 8c3 5-1 15-9 22s-14 9-14 5zm122-13v-25l5 13c2 6 2 18 0 25l-5 12v-25zm78-11v-10l10 6c6 3 10 8 10 11 0 2-4 4-10 4-5 0-10-5-10-11z"/></g><g fill="#a8a8a8" transform="matrix(.1 0 0 -.1 0 300)"><path d="M852 2865c-386-184-684-522-821-931l-31-92v-283l1-284 33 90c42 114 76 181 138 272l50 72 86 83 87 83 72 48c135 90 308 160 480 194 51 11 96 23 100 27l8 9-150-6-150-6-86-15c-48-9-95-18-105-22l-19-6 20 16c10 9 63 39 117 66l97 50 118 39 118 39 94 16c51 9 141 19 200 22l106 7 108-12c59-7 115-15 125-18 9-4-98 85-238 198-434 349-458 368-462 378l-3 10-93-44zm1453-1099 24-55 11-83 10-83 35-70 35-70 52-61c29-33 72-78 95-98l43-38-11-20c-20-37-82-99-124-124l-42-24-54-10-55-10-54 10-55 9-240 121-240 120-100 26-100 26-105-5-105-4-60-23c-33-13-89-42-125-65l-65-42-62-62-61-62-35-67c-19-37-43-94-53-127l-18-60 1-90v-90l17-64c67-248 273-453 550-547l70-24h625l82 30c161 59 294 145 437 284 147 143 253 295 336 486l36 81v182l-1 182-152 121c-171 137-460 369-524 421l-42 34 24-55zM28 373l12-5V254l-12-12-12-12h71l27 21c30 24 33 44 9 58l-17 9 13 16 13 16-6 15-5 15-53-1c-29 0-47-3-40-6zm72-28v-25H60v50h40v-25zm-2-47c7-7 12-20 12-30v-18H60v60h13c7 0 18-5 25-12zm150 7c15-41 30-75 33-75 4 0 14 21 25 48l18 47 15-47c8-27 18-48 22-48s19 30 34 68c15 37 32 70 38 74l12 8h-70l13-9 14-8-13-42c-7-22-16-41-20-41s-13 23-20 50l-13 50h-33l5-29 4-29-14-27-14-27-14 56-13 56h-35l26-75zm267 0v-75h44l-6 35c-3 19-3 35 0 35s14-16 26-35l20-35h16c21 0 19 7-10 42l-25 30 19 24 20 25-6 15-5 14h-93v-75zm70 40v-20l-17-3-18-3v52l18-3 17-3v-20zM160 245v-15h30v30h-30v-15zm295 6-5-10 10-6 10-6 10 6 10 6-5 10c-4 5-10 9-15 9s-11-4-15-9zm195-6v-17l11 4c6 2 11 8 11 13s-5 11-11 13l-11 4v-17zm-28-105v-35l5 18c2 9 2 25 0 35l-5 17v-35zm-100-5v-30l5 18c2 9 2 23 0 30l-5 12v-30zm18 11c0-8 4-17 9-20l9-6-5 20c-6 23-13 26-13 6zm52-11v-30l5 18c2 9 2 23 0 30l-5 12v-30zm-176 7-5-9h14c8 0 15 4 15 9 0 4-4 8-9 8-6 0-12-4-15-8zm34 1c0-4 4-14 9-22l9-13 5 8c3 5-1 15-9 22s-14 9-14 5zm122-13v-25l5 13c2 6 2 18 0 25l-5 12v-25zm78-11v-10l10 6c6 3 10 8 10 11 0 2-4 4-10 4-5 0-10-5-10-11z"/></g><g fill="#8f8f8f" transform="matrix(.1 0 0 -.1 0 300)"><path d="m408 2548-93-94-68-95-67-94-60-120c-33-66-73-161-90-211l-30-92v-283l1-284 33 90c42 114 76 181 138 272l50 72 86 83 87 83 72 48c135 90 308 160 480 194 51 11 96 23 100 27l8 9-150-6-150-6-86-15c-48-9-95-18-105-22l-19-6 19 16c36 29 200 109 289 141l88 32-203 163c-112 90-211 170-220 178l-18 15-92-95zm937-1225c-58-12-147-50-205-88l-65-42-62-62-61-62-35-67c-19-37-43-94-53-127l-18-60 1-90v-90l17-64c67-248 273-453 550-547l70-24h625l82 30c101 36 191 85 292 158l77 55 98 101c53 56 118 130 143 166 58 82 112 177 107 189-1 6-101 89-222 185l-218 175-19-10c-11-5-43-14-72-19l-53-10-54 10-55 9-240 121-240 120-99 25-99 25-86-1c-47-1-95-3-106-6zM28 373l12-5V254l-12-12-12-12h71l27 21c30 24 33 44 9 58l-17 9 13 16 13 16-6 15-5 15-53-1c-29 0-47-3-40-6zm72-28v-25H60v50h40v-25zm-2-47c7-7 12-20 12-30v-18H60v60h13c7 0 18-5 25-12zm150 7c15-41 30-75 33-75 4 0 14 21 25 48l18 47 15-47c8-27 18-48 22-48s19 30 34 68c15 37 32 70 38 74l12 8h-70l13-9 14-8-13-42c-7-22-16-41-20-41s-13 23-20 50l-13 50h-33l5-29 4-29-14-27-14-27-14 56-13 56h-35l26-75zm267 0v-75h44l-6 35c-3 19-3 35 0 35s14-16 26-35l20-35h16c21 0 19 7-10 42l-25 30 19 24 20 25-6 15-5 14h-93v-75zm70 40v-20l-17-3-18-3v52l18-3 17-3v-20zM160 245v-15h30v30h-30v-15zm295 6-5-10 10-6 10-6 10 6 10 6-5 10c-4 5-10 9-15 9s-11-4-15-9zm195-6v-17l11 4c6 2 11 8 11 13s-5 11-11 13l-11 4v-17zm-28-105v-35l5 18c2 9 2 25 0 35l-5 17v-35zm-100-5v-30l5 18c2 9 2 23 0 30l-5 12v-30zm18 11c0-8 4-17 9-20l9-6-5 20c-6 23-13 26-13 6zm52-11v-30l5 18c2 9 2 23 0 30l-5 12v-30zm-176 7-5-9h14c8 0 15 4 15 9 0 4-4 8-9 8-6 0-12-4-15-8zm34 1c0-4 4-14 9-22l9-13 5 8c3 5-1 15-9 22s-14 9-14 5zm122-13v-25l5 13c2 6 2 18 0 25l-5 12v-25zm78-11v-10l10 6c6 3 10 8 10 11 0 2-4 4-10 4-5 0-10-5-10-11z"/></g><g fill="#7a7a7a" transform="matrix(.1 0 0 -.1 0 300)"><path d="M116 2138c-30-62-69-154-86-204l-30-92v-283l1-284 33 90c42 114 76 181 138 272l50 72 86 83c48 46 116 103 152 127 36 23 65 44 65 46 0 1-38 33-85 71-47 37-121 97-165 132-44 36-85 69-92 74l-12 10-55-114zm1144-840c-30-11-84-40-120-63l-65-42-62-62-61-62-35-67c-19-37-43-94-53-127l-18-60 1-90v-90l17-64c67-248 273-453 550-547l70-24h625l82 30c130 47 281 138 381 228l37 34-102 82c-56 45-219 176-362 291s-385 309-537 432c-153 123-281 223-285 222-5 0-33-9-63-21zM28 373l12-5V254l-12-12-12-12h71l27 21c30 24 33 44 9 58l-17 9 13 16 13 16-6 15-5 15-53-1c-29 0-47-3-40-6zm72-28v-25H60v50h40v-25zm-2-47c7-7 12-20 12-30v-18H60v60h13c7 0 18-5 25-12zm150 7c15-41 30-75 33-75 4 0 14 21 25 48l18 47 15-47c8-27 18-48 22-48s19 30 34 68c15 37 32 70 38 74l12 8h-70l13-9 14-8-13-42c-7-22-16-41-20-41s-13 23-20 50l-13 50h-33l5-29 4-29-14-27-14-27-14 56-13 56h-35l26-75zm267 0v-75h44l-6 35c-3 19-3 35 0 35s14-16 26-35l20-35h16c21 0 19 7-10 42l-25 30 19 24 20 25-6 15-5 14h-93v-75zm70 40v-20l-17-3-18-3v52l18-3 17-3v-20zM160 245v-15h30v30h-30v-15zm295 6-5-10 10-6 10-6 10 6 10 6-5 10c-4 5-10 9-15 9s-11-4-15-9zm195-6v-17l11 4c6 2 11 8 11 13s-5 11-11 13l-11 4v-17zm-28-105v-35l5 18c2 9 2 25 0 35l-5 17v-35zm-100-5v-30l5 18c2 9 2 23 0 30l-5 12v-30zm18 11c0-8 4-17 9-20l9-6-5 20c-6 23-13 26-13 6zm52-11v-30l5 18c2 9 2 23 0 30l-5 12v-30zm-176 7-5-9h14c8 0 15 4 15 9 0 4-4 8-9 8-6 0-12-4-15-8zm34 1c0-4 4-14 9-22l9-13 5 8c3 5-1 15-9 22s-14 9-14 5zm122-13v-25l5 13c2 6 2 18 0 25l-5 12v-25zm78-11v-10l10 6c6 3 10 8 10 11 0 2-4 4-10 4-5 0-10-5-10-11z"/></g><g fill="#666" transform="matrix(.1 0 0 -.1 0 300)"><path d="M6 1853c-3-3-6-135-6-292l1-286 33 90c41 112 76 182 132 263 24 35 44 66 44 70-1 6-84 75-175 144l-22 18-7-7zm946-790c-32-46-69-125-88-188l-18-60 1-90v-90l17-64c67-250 279-458 557-550l66-22 324 3 324 3 62 25 63 25-183 146c-100 81-310 250-467 376s-357 287-445 357c-88 71-167 135-176 143l-17 14-20-28zM28 373l12-5V254l-12-12-12-12h71l27 21c30 24 33 44 9 58l-17 9 13 16 13 16-6 15-5 15-53-1c-29 0-47-3-40-6zm72-28v-25H60v50h40v-25zm-2-47c7-7 12-20 12-30v-18H60v60h13c7 0 18-5 25-12zm150 7c15-41 30-75 33-75 4 0 14 21 25 48l18 47 15-47c8-27 18-48 22-48s19 30 34 68c15 37 32 70 38 74l12 8h-70l13-9 14-8-13-42c-7-22-16-41-20-41s-13 23-20 50l-13 50h-33l5-29 4-29-14-27-14-27-14 56-13 56h-35l26-75zm267 0v-75h44l-6 35c-3 19-3 35 0 35s14-16 26-35l20-35h16c21 0 19 7-10 42l-25 30 19 24 20 25-6 15-5 14h-93v-75zm70 40v-20l-17-3-18-3v52l18-3 17-3v-20zM160 245v-15h30v30h-30v-15zm295 6-5-10 10-6 10-6 10 6 10 6-5 10c-4 5-10 9-15 9s-11-4-15-9zm195-6v-17l11 4c6 2 11 8 11 13s-5 11-11 13l-11 4v-17zm-28-105v-35l5 18c2 9 2 25 0 35l-5 17v-35zm-100-5v-30l5 18c2 9 2 23 0 30l-5 12v-30zm18 11c0-8 4-17 9-20l9-6-5 20c-6 23-13 26-13 6zm52-11v-30l5 18c2 9 2 23 0 30l-5 12v-30zm-176 7-5-9h14c8 0 15 4 15 9 0 4-4 8-9 8-6 0-12-4-15-8zm34 1c0-4 4-14 9-22l9-13 5 8c3 5-1 15-9 22s-14 9-14 5zm122-13v-25l5 13c2 6 2 18 0 25l-5 12v-25zm78-11v-10l10 6c6 3 10 8 10 11 0 2-4 4-10 4-5 0-10-5-10-11z"/></g></g></svg>
